<svg width="27" height="25" viewBox="0 0 27 25" fill="none" xmlns="http://www.w3.org/2000/svg">
<path fill-rule="evenodd" clip-rule="evenodd" d="M4.53239 0.0248213C2.12946 -0.238279 0 1.62267 0 4.06654V18.0276C0 20.2123 1.71478 21.9249 3.83199 22.0779C6.81965 22.294 9.45418 23.5278 11.0324 24.4453C12.3056 25.185 13.8665 25.1848 15.1398 24.4452C16.718 23.5277 19.3523 22.294 22.3399 22.0779C24.457 21.9249 26.1719 20.2123 26.1719 18.0276V4.06654C26.1719 1.62247 24.0407 -0.23826 21.6391 0.0248654C19.1491 0.298541 16.9428 1.1561 15.3304 1.9663C14.8941 2.18553 14.5012 2.4013 14.158 2.60109C13.4916 2.98806 12.6803 2.98805 12.0138 2.60106C11.6706 2.40128 11.2778 2.18553 10.8415 1.9663C9.22892 1.15609 7.02234 0.298498 4.53239 0.0248213ZM1.95313 4.06654C1.95313 2.80648 3.05175 1.82774 4.31941 1.9663C7.10658 2.27273 9.54306 3.42268 11.0316 4.28923L11.0324 4.28968C11.3744 4.48835 11.7371 4.63367 12.1094 4.72561V22.8091C12.0772 22.7924 12.0453 22.775 12.0137 22.7566C10.3111 21.7668 7.37892 20.3762 3.97281 20.1298C2.81989 20.0465 1.95313 19.132 1.95313 18.0276V4.06654ZM14.0625 22.809C14.0947 22.7924 14.1266 22.775 14.1582 22.7566C15.8608 21.7668 18.7929 20.3762 22.199 20.1298C23.3519 20.0465 24.2188 19.132 24.2188 18.0276V4.06654C24.2188 2.80666 23.1191 1.82772 21.8525 1.9663C19.0652 2.27272 16.6288 3.42267 15.1403 4.28922L15.1396 4.28968C14.7976 4.48835 14.4349 4.63366 14.0625 4.7256V22.809ZM5.63385 7.35623C5.13252 7.15735 4.56488 7.40253 4.366 7.90387C4.16712 8.4052 4.4123 8.97283 4.91364 9.17172L7.75908 10.3005C8.26042 10.4994 8.82805 10.2542 9.02694 9.75288C9.22582 9.25155 8.98063 8.68391 8.4793 8.48503L5.63385 7.35623ZM5.63384 13.2119C5.13251 13.013 4.56487 13.2582 4.366 13.7595C4.16712 14.2608 4.41231 14.8285 4.91364 15.0274L7.75909 16.1561C8.26043 16.355 8.82806 16.1098 9.02694 15.6085C9.22582 15.1071 8.98063 14.5395 8.47929 14.3406L5.63384 13.2119ZM20.4649 7.35623C20.9662 7.15735 21.5339 7.40253 21.7328 7.90387C21.9316 8.4052 21.6865 8.97283 21.1851 9.17172L18.3397 10.3005C17.8383 10.4994 17.2707 10.2542 17.0718 9.75288C16.8729 9.25155 17.1181 8.68391 17.6195 8.48503L20.4649 7.35623ZM20.4649 13.2119C20.9662 13.013 21.5339 13.2582 21.7328 13.7595C21.9316 14.2608 21.6864 14.8285 21.1851 15.0274L18.3397 16.1561C17.8383 16.355 17.2707 16.1098 17.0718 15.6085C16.8729 15.1071 17.1181 14.5395 17.6195 14.3406L20.4649 13.2119Z" fill="#FF0879"/>
</svg>
