<svg width="25" height="25" viewBox="0 0 25 25" fill="none" xmlns="http://www.w3.org/2000/svg">
<path fill-rule="evenodd" clip-rule="evenodd" d="M1.91114 2.1119C3.17353 0.757887 4.97116 0 7.09344 0H10.2147C10.7457 0 11.1762 0.430495 11.1762 0.961538C11.1762 1.49258 10.7457 1.92308 10.2147 1.92308H7.09344C5.44749 1.92308 4.17915 2.49928 3.31763 3.42333C2.44915 4.35484 1.923 5.71745 1.923 7.4056V17.5944C1.923 19.2837 2.44706 20.6462 3.31386 21.5771C4.17344 22.5003 5.44126 23.0769 7.09344 23.0769H17.9055C19.5583 23.0769 20.8261 22.5003 21.6854 21.5772C22.552 20.6463 23.0759 19.2839 23.0759 17.5944V15.0978C23.0759 14.5668 23.5064 14.1363 24.0374 14.1363C24.5684 14.1363 24.9989 14.5668 24.9989 15.0978V17.5944C24.9989 19.6808 24.3471 21.5404 23.0929 22.8876C21.8315 24.2425 20.0333 25 17.9055 25H7.09344C4.96618 25 3.16802 24.2425 1.9065 22.8876C0.652183 21.5405 0 19.6809 0 17.5944V7.4056C0 5.31787 0.655704 3.45845 1.91114 2.1119Z" fill="#FFAA2E"/>
<path fill-rule="evenodd" clip-rule="evenodd" d="M19.0726 14.8219C19.4445 15.2009 19.4389 15.8097 19.0599 16.1817L15.7577 19.4227C15.4337 19.7407 14.9315 19.7888 14.5531 19.5381L10.3363 16.7444L7.52383 19.7268C7.15949 20.1132 6.55094 20.131 6.16459 19.7667C5.77824 19.4024 5.76039 18.7938 6.12472 18.4074L9.4927 14.8359C9.81373 14.4955 10.3332 14.4356 10.7233 14.694L14.9662 17.505L17.7128 14.8092C18.0918 14.4373 18.7006 14.443 19.0726 14.8219Z" fill="#FFAA2E"/>
<path fill-rule="evenodd" clip-rule="evenodd" d="M5.66924 4.84412C6.20028 4.84412 6.63078 5.27461 6.63078 5.80565V10.8639C6.63078 11.3949 6.20028 11.8254 5.66924 11.8254C5.1382 11.8254 4.7077 11.3949 4.7077 10.8639V5.80565C4.7077 5.27461 5.1382 4.84412 5.66924 4.84412ZM9.51748 6.7177C10.0485 6.7177 10.479 7.1482 10.479 7.67924V10.8639C10.479 11.3949 10.0485 11.8254 9.51748 11.8254C8.98643 11.8254 8.55594 11.3949 8.55594 10.8639V7.67924C8.55594 7.1482 8.98643 6.7177 9.51748 6.7177Z" fill="#FFAA2E"/>
<path fill-rule="evenodd" clip-rule="evenodd" d="M12.7795 6.11012C12.7795 2.73602 15.5148 0 18.8896 0C22.2643 0 24.9997 2.73601 24.9997 6.11012C24.9997 9.48485 22.2642 12.2203 18.8896 12.2203C15.5148 12.2203 12.7795 9.48484 12.7795 6.11012ZM18.8896 1.92308C16.577 1.92308 14.7026 3.79797 14.7026 6.11012C14.7026 8.42279 16.5769 10.2972 18.8896 10.2972C21.2021 10.2972 23.0766 8.42277 23.0766 6.11012C23.0766 3.79798 21.2021 1.92308 18.8896 1.92308Z" fill="#FFAA2E"/>
<path fill-rule="evenodd" clip-rule="evenodd" d="M18.7131 0.00170898C19.2441 0.00170898 19.6746 0.432204 19.6746 0.963247V5.3245H24.0359C24.5669 5.3245 24.9974 5.755 24.9974 6.28604C24.9974 6.81708 24.5669 7.24758 24.0359 7.24758H19.2851C18.4382 7.24758 17.7515 6.56097 17.7515 5.71398V0.963247C17.7515 0.432204 18.182 0.00170898 18.7131 0.00170898Z" fill="#FFAA2E"/>
</svg>
