<svg width="11" height="20" viewBox="0 0 11 20" fill="none" xmlns="http://www.w3.org/2000/svg">
<path d="M10.3334 0.148302V3.32098H8.47617C8.41139 3.31181 8.33596 3.30681 8.2597 3.30681C7.81529 3.30681 7.41023 3.47594 7.10275 3.75505L7.10439 3.75339C6.87891 4.07332 6.74444 4.4724 6.74444 4.90398C6.74444 4.95563 6.74608 5.00729 6.75017 5.05811V5.05145V7.32264H10.2177L9.75857 10.8802H6.75509V20H3.13338V10.8794H0.115967V7.32264H3.13338V4.70235C3.12764 4.61737 3.12436 4.51739 3.12436 4.41741C3.12436 3.186 3.59583 2.06624 4.36494 1.23474L4.36248 1.23724C5.15947 0.470735 6.23853 0 7.42499 0C7.49879 0 7.57258 0.00166632 7.64638 0.00583212H7.63572C7.73247 0.0041658 7.84563 0.00333264 7.9596 0.00333264C8.79595 0.00333264 9.62 0.0566549 10.4285 0.159967L10.3325 0.149969L10.3334 0.148302Z" fill="#202020"/>
</svg>
