<svg width="129" height="30" viewBox="0 0 129 30" fill="none" xmlns="http://www.w3.org/2000/svg">
<g filter="url(#filter0_d_680_36685)">
<rect x="2" y="1" width="125" height="26" rx="8" fill="#007AFF" fill-opacity="0.1"/>
<circle cx="16" cy="14" r="3" fill="#007AFF"/>
<path d="M35.7082 8.81818V19H34.2963L29.1209 11.5327H29.0264V19H27.4902V8.81818H28.9121L34.0925 16.2955H34.1869V8.81818H35.7082ZM41.2611 19.1541C40.5087 19.1541 39.8607 18.9934 39.3172 18.6719C38.7769 18.3471 38.3593 17.8913 38.0643 17.3047C37.7727 16.7147 37.6268 16.0237 37.6268 15.2315C37.6268 14.4493 37.7727 13.7599 38.0643 13.1634C38.3593 12.5668 38.7703 12.1011 39.2973 11.7663C39.8276 11.4316 40.4474 11.2642 41.1567 11.2642C41.5875 11.2642 42.0052 11.3355 42.4095 11.478C42.8139 11.6205 43.1768 11.8442 43.4983 12.1491C43.8198 12.4541 44.0733 12.8501 44.2589 13.3374C44.4445 13.8213 44.5373 14.4096 44.5373 15.1023V15.6293H38.467V14.5156H43.0807C43.0807 14.1245 43.0011 13.7782 42.842 13.4766C42.6829 13.1716 42.4592 12.9313 42.1709 12.7557C41.8858 12.58 41.5511 12.4922 41.1666 12.4922C40.749 12.4922 40.3844 12.5949 40.0729 12.8004C39.7646 13.0026 39.526 13.2678 39.3569 13.5959C39.1912 13.9207 39.1084 14.2737 39.1084 14.6548V15.5249C39.1084 16.0353 39.1979 16.4695 39.3768 16.8274C39.5591 17.1854 39.8127 17.4588 40.1375 17.6477C40.4623 17.8333 40.8418 17.9261 41.276 17.9261C41.5577 17.9261 41.8146 17.8864 42.0466 17.8068C42.2786 17.724 42.4791 17.6013 42.6481 17.4389C42.8172 17.2765 42.9464 17.076 43.0359 16.8374L44.4429 17.0909C44.3302 17.5052 44.128 17.8681 43.8364 18.1797C43.548 18.4879 43.1851 18.7282 42.7476 18.9006C42.3134 19.0696 41.8179 19.1541 41.2611 19.1541ZM47.9685 19L45.7214 11.3636H47.2576L48.7541 16.9716H48.8286L50.33 11.3636H51.8663L53.3577 16.9467H53.4323L54.9188 11.3636H56.455L54.2129 19H52.6965L51.1454 13.4865H51.031L49.4799 19H47.9685ZM61.9701 19V8.81818H68.2841V10.1406H63.5064V13.2429H67.8316V14.5604H63.5064V19H61.9701ZM72.9246 19.1541C72.1722 19.1541 71.5243 18.9934 70.9807 18.6719C70.4404 18.3471 70.0228 17.8913 69.7279 17.3047C69.4362 16.7147 69.2904 16.0237 69.2904 15.2315C69.2904 14.4493 69.4362 13.7599 69.7279 13.1634C70.0228 12.5668 70.4338 12.1011 70.9608 11.7663C71.4911 11.4316 72.1109 11.2642 72.8202 11.2642C73.2511 11.2642 73.6687 11.3355 74.073 11.478C74.4774 11.6205 74.8403 11.8442 75.1618 12.1491C75.4833 12.4541 75.7368 12.8501 75.9225 13.3374C76.1081 13.8213 76.2009 14.4096 76.2009 15.1023V15.6293H70.1306V14.5156H74.7442C74.7442 14.1245 74.6646 13.7782 74.5056 13.4766C74.3465 13.1716 74.1227 12.9313 73.8344 12.7557C73.5493 12.58 73.2146 12.4922 72.8301 12.4922C72.4125 12.4922 72.0479 12.5949 71.7364 12.8004C71.4281 13.0026 71.1895 13.2678 71.0205 13.5959C70.8547 13.9207 70.7719 14.2737 70.7719 14.6548V15.5249C70.7719 16.0353 70.8614 16.4695 71.0404 16.8274C71.2226 17.1854 71.4762 17.4588 71.801 17.6477C72.1258 17.8333 72.5053 17.9261 72.9395 17.9261C73.2212 17.9261 73.4781 17.8864 73.7101 17.8068C73.9421 17.724 74.1426 17.6013 74.3117 17.4389C74.4807 17.2765 74.61 17.076 74.6994 16.8374L76.1064 17.0909C75.9937 17.5052 75.7915 17.8681 75.4999 18.1797C75.2115 18.4879 74.8486 18.7282 74.4111 18.9006C73.9769 19.0696 73.4814 19.1541 72.9246 19.1541ZM80.2125 19.169C79.7286 19.169 79.2911 19.0795 78.9 18.9006C78.5089 18.7183 78.199 18.4548 77.9703 18.1101C77.7449 17.7654 77.6322 17.3428 77.6322 16.8423C77.6322 16.4115 77.7151 16.0568 77.8808 15.7784C78.0465 15.5 78.2703 15.2796 78.552 15.1172C78.8337 14.9548 79.1486 14.8321 79.4966 14.7493C79.8446 14.6664 80.1992 14.6035 80.5605 14.5604C81.0179 14.5073 81.3891 14.4643 81.6741 14.4311C81.9592 14.3946 82.1663 14.3366 82.2956 14.2571C82.4248 14.1776 82.4895 14.0483 82.4895 13.8693V13.8345C82.4895 13.4003 82.3668 13.0639 82.1216 12.8253C81.8796 12.5866 81.5184 12.4673 81.0378 12.4673C80.5373 12.4673 80.1429 12.5784 79.8545 12.8004C79.5695 13.0192 79.3723 13.2628 79.2629 13.5312L77.8659 13.2131C78.0316 12.7491 78.2736 12.3745 78.5918 12.0895C78.9132 11.8011 79.2828 11.5923 79.7004 11.4631C80.118 11.3305 80.5572 11.2642 81.0179 11.2642C81.3228 11.2642 81.646 11.3007 81.9873 11.3736C82.332 11.4432 82.6535 11.5724 82.9518 11.7614C83.2534 11.9503 83.5004 12.2204 83.6926 12.5717C83.8848 12.9197 83.981 13.3722 83.981 13.929V19H82.5293V17.956H82.4696C82.3735 18.1482 82.2293 18.3371 82.0371 18.5227C81.8448 18.7083 81.5979 18.8625 81.2963 18.9851C80.9947 19.1077 80.6334 19.169 80.2125 19.169ZM80.5356 17.9759C80.9466 17.9759 81.298 17.8946 81.5896 17.7322C81.8846 17.5698 82.1083 17.3577 82.2608 17.0959C82.4166 16.8307 82.4944 16.5473 82.4944 16.2457V15.2614C82.4414 15.3144 82.3387 15.3641 82.1862 15.4105C82.0371 15.4536 81.8664 15.4917 81.6741 15.5249C81.4819 15.5547 81.2946 15.5829 81.1123 15.6094C80.9301 15.6326 80.7776 15.6525 80.655 15.669C80.3666 15.7055 80.1031 15.7668 79.8645 15.853C79.6292 15.9392 79.4402 16.0634 79.2977 16.2259C79.1585 16.3849 79.0889 16.5971 79.0889 16.8622C79.0889 17.2301 79.2248 17.5085 79.4966 17.6974C79.7684 17.883 80.1147 17.9759 80.5356 17.9759ZM89.6655 11.3636V12.5568H85.4944V11.3636H89.6655ZM86.613 9.53409H88.0995V16.7578C88.0995 17.0462 88.1426 17.2633 88.2287 17.4091C88.3149 17.5516 88.4259 17.6494 88.5618 17.7024C88.701 17.7521 88.8518 17.777 89.0142 17.777C89.1336 17.777 89.238 17.7687 89.3275 17.7521C89.4169 17.7356 89.4865 17.7223 89.5363 17.7124L89.8047 18.9403C89.7186 18.9735 89.5959 19.0066 89.4368 19.0398C89.2777 19.0762 89.0789 19.0961 88.8402 19.0994C88.4491 19.1061 88.0846 19.0365 87.7465 18.8906C87.4084 18.7448 87.135 18.5194 86.9262 18.2145C86.7174 17.9096 86.613 17.5268 86.613 17.0661V9.53409ZM96.2872 15.8331V11.3636H97.7787V19H96.3171V17.6776H96.2375C96.0619 18.0852 95.7801 18.425 95.3924 18.6967C95.0079 18.9652 94.529 19.0994 93.9556 19.0994C93.465 19.0994 93.0308 18.9917 92.653 18.7763C92.2785 18.5575 91.9835 18.2344 91.7681 17.8068C91.5559 17.3793 91.4499 16.8506 91.4499 16.2209V11.3636H92.9364V16.0419C92.9364 16.5623 93.0806 16.9766 93.3689 17.2848C93.6573 17.593 94.0318 17.7472 94.4925 17.7472C94.7709 17.7472 95.0477 17.6776 95.3228 17.5384C95.6012 17.3991 95.8315 17.1887 96.0138 16.907C96.1994 16.6252 96.2906 16.2673 96.2872 15.8331ZM99.9161 19V11.3636H101.353V12.5767H101.432C101.572 12.1657 101.817 11.8426 102.168 11.6072C102.523 11.3686 102.924 11.2493 103.371 11.2493C103.464 11.2493 103.573 11.2526 103.699 11.2592C103.829 11.2659 103.93 11.2741 104.003 11.2841V12.706C103.943 12.6894 103.837 12.6712 103.685 12.6513C103.532 12.6281 103.38 12.6165 103.227 12.6165C102.876 12.6165 102.563 12.6911 102.288 12.8402C102.016 12.986 101.8 13.1899 101.641 13.4517C101.482 13.7102 101.403 14.0052 101.403 14.3366V19H99.9161ZM108.447 19.1541C107.694 19.1541 107.047 18.9934 106.503 18.6719C105.963 18.3471 105.545 17.8913 105.25 17.3047C104.958 16.7147 104.813 16.0237 104.813 15.2315C104.813 14.4493 104.958 13.7599 105.25 13.1634C105.545 12.5668 105.956 12.1011 106.483 11.7663C107.013 11.4316 107.633 11.2642 108.342 11.2642C108.773 11.2642 109.191 11.3355 109.595 11.478C110 11.6205 110.363 11.8442 110.684 12.1491C111.006 12.4541 111.259 12.8501 111.445 13.3374C111.63 13.8213 111.723 14.4096 111.723 15.1023V15.6293H105.653V14.5156H110.266C110.266 14.1245 110.187 13.7782 110.028 13.4766C109.869 13.1716 109.645 12.9313 109.357 12.7557C109.072 12.58 108.737 12.4922 108.352 12.4922C107.935 12.4922 107.57 12.5949 107.259 12.8004C106.95 13.0026 106.712 13.2678 106.543 13.5959C106.377 13.9207 106.294 14.2737 106.294 14.6548V15.5249C106.294 16.0353 106.384 16.4695 106.563 16.8274C106.745 17.1854 106.998 17.4588 107.323 17.6477C107.648 17.8333 108.028 17.9261 108.462 17.9261C108.743 17.9261 109 17.8864 109.232 17.8068C109.464 17.724 109.665 17.6013 109.834 17.4389C110.003 17.2765 110.132 17.076 110.222 16.8374L111.629 17.0909C111.516 17.5052 111.314 17.8681 111.022 18.1797C110.734 18.4879 110.371 18.7282 109.933 18.9006C109.499 19.0696 109.004 19.1541 108.447 19.1541ZM115.387 8.81818L115.257 16.0717H113.88L113.751 8.81818H115.387ZM114.571 19.0945C114.296 19.0945 114.061 18.9983 113.865 18.8061C113.67 18.6106 113.574 18.3752 113.577 18.1001C113.574 17.8284 113.67 17.5964 113.865 17.4041C114.061 17.2086 114.296 17.1108 114.571 17.1108C114.84 17.1108 115.072 17.2086 115.267 17.4041C115.463 17.5964 115.562 17.8284 115.566 18.1001C115.562 18.2824 115.514 18.4498 115.422 18.6023C115.332 18.7514 115.213 18.8707 115.064 18.9602C114.914 19.0497 114.75 19.0945 114.571 19.0945Z" fill="#202020"/>
<rect x="2.5" y="1.5" width="124" height="25" rx="7.5" stroke="#007AFF"/>
</g>
<defs>
<filter id="filter0_d_680_36685" x="0" y="0" width="129" height="30" filterUnits="userSpaceOnUse" color-interpolation-filters="sRGB">
<feFlood flood-opacity="0" result="BackgroundImageFix"/>
<feColorMatrix in="SourceAlpha" type="matrix" values="0 0 0 0 0 0 0 0 0 0 0 0 0 0 0 0 0 0 127 0" result="hardAlpha"/>
<feOffset dy="1"/>
<feGaussianBlur stdDeviation="1"/>
<feColorMatrix type="matrix" values="0 0 0 0 0.0627451 0 0 0 0 0.0941176 0 0 0 0 0.156863 0 0 0 0.05 0"/>
<feBlend mode="normal" in2="BackgroundImageFix" result="effect1_dropShadow_680_36685"/>
<feBlend mode="normal" in="SourceGraphic" in2="effect1_dropShadow_680_36685" result="shape"/>
</filter>
</defs>
</svg>
