<svg width="98" height="204" viewBox="0 0 98 204" fill="none" xmlns="http://www.w3.org/2000/svg">
<path d="M100.53 199.89C101.202 199.673 101.837 199.426 102.5 199.187L16.2054 41.6839C15.7833 42.3778 15.3984 43.103 15.0035 43.8062L100.53 199.89ZM106.443 197.559C107.058 197.268 107.701 196.985 108.319 196.676L20.037 35.5624C19.595 36.2121 19.1665 36.8665 18.7517 37.5255L106.443 197.559ZM117.427 191.342C117.975 190.952 118.568 190.559 119.137 190.14L28.5156 24.7925C28.0237 25.3319 27.5453 25.8759 27.0534 26.4153L117.424 191.359L117.427 191.342ZM94.2956 201.662C94.9843 201.507 95.6767 201.335 96.3727 201.146L12.6577 48.3318C12.2791 49.0965 11.9142 49.8659 11.5592 50.6574L94.3092 201.667L94.2956 201.662ZM122.498 187.529C123.057 187.087 123.589 186.636 124.151 186.177L33.1526 20.1222C32.6271 20.6128 32.1152 21.108 31.5897 21.5985L122.508 187.551L122.498 187.529ZM112.045 194.693C112.654 194.362 113.225 193.999 113.838 193.651L24.1289 29.9404C23.6705 30.5286 23.2122 31.1167 22.7638 31.727L112.072 194.703L112.045 194.693ZM87.7241 202.816C88.4427 202.727 89.1786 202.626 89.9009 202.52L9.41288 55.6244C9.08148 56.4426 8.75642 57.3003 8.44496 58.1627L87.7513 202.825L87.7241 202.816ZM34.9566 185.26C36.3591 186.506 37.7897 187.688 39.2621 188.809L2.14794 121.116C2.47676 123.243 2.86003 125.388 3.29503 127.495L34.9838 185.27L34.9566 185.26ZM22.9989 172.259L8.75985 146.3C10.5534 150.98 12.6728 155.567 15.088 159.995C17.5068 164.406 20.1517 168.502 22.9989 172.259ZM46.9435 194.003C48.0766 194.653 49.1862 195.277 50.3166 195.87L0.79179 105.475C0.840388 107.058 0.923468 108.615 1.02016 110.177L46.9435 194.003ZM65.4584 201.521C66.3475 201.733 67.2539 201.933 68.1504 202.111L2.28504 81.9213C2.1069 83.0532 1.95599 84.1945 1.81504 85.3578L65.4584 201.521ZM56.7519 198.79C57.7381 199.166 58.7144 199.52 59.6942 199.857L1.05546 92.8333C0.960776 94.1244 0.889657 95.4422 0.835793 96.7472L56.7655 198.795L56.7519 198.79ZM73.4229 202.916C74.235 203.008 75.0643 203.088 75.9009 203.134L4.18575 72.2653C3.94413 73.2822 3.71612 74.3037 3.51896 75.3172L73.4229 202.916ZM80.8161 203.275C81.5883 203.28 82.3677 203.249 83.1472 203.219L6.61795 63.5563C6.32281 64.4802 6.04492 65.3914 5.77701 66.3246L80.8125 203.293L80.8161 203.275ZM136.325 173.359C136.797 172.775 137.246 172.165 137.694 171.555L48.5427 8.87527C47.9474 9.21132 47.3521 9.54737 46.7395 9.89613L136.325 173.359ZM159.021 109.758C159.096 108.423 159.154 107.101 159.184 105.769L104.297 5.57108C103.305 5.15542 102.291 4.76988 101.298 4.42847L159.021 109.758ZM156.042 130.583C156.283 129.566 156.498 128.54 156.716 127.496L87.4493 1.10499C86.6372 1.01234 85.7943 0.927729 84.965 0.84781L156.042 130.583ZM157.852 120.803C158.033 119.653 158.184 118.512 158.322 117.366L95.4701 2.64955C94.5709 2.41513 93.6609 2.2329 92.7681 2.03794L157.869 120.79L157.852 120.803ZM159.121 96.8548C159.049 95.2454 158.963 93.6313 158.829 92.038L114.255 10.6896C113.116 9.99969 111.959 9.32256 110.805 8.70229L159.138 96.8421L159.121 96.8548ZM127.382 183.279C127.894 182.784 128.437 182.281 128.918 181.794L38.0399 15.9294C37.4844 16.3537 36.9526 16.8048 36.4072 17.2512L127.382 183.279ZM157.471 80.6656C157.082 78.4068 156.635 76.1467 156.137 73.9247L126.647 20.149C125.181 18.7877 123.69 17.4739 122.164 16.2597L157.457 80.6609L157.471 80.6656ZM140.773 37.0836L148.494 51.1645C147.373 48.71 146.169 46.3017 144.873 43.9176C143.56 41.5461 142.198 39.2697 140.773 37.0836ZM140.411 167.697C140.839 167.043 141.268 166.389 141.682 165.73L54.2055 6.06746C53.5802 6.3373 52.9477 6.64193 52.3324 6.93384L140.411 167.697ZM144.199 161.505C144.611 160.789 144.992 160.081 145.394 159.343L60.162 3.80806C59.4933 4.007 58.8308 4.24543 58.182 4.4885L144.212 161.51L144.199 161.505ZM131.972 178.555C132.468 177.999 132.96 177.459 133.442 176.898L43.1611 12.1525C42.5858 12.5327 42.0204 12.935 41.455 13.3372L131.972 178.555ZM153.677 139.39C153.958 138.461 154.243 137.515 154.508 136.599L80.0062 0.635143C79.2341 0.630795 78.4446 0.639142 77.6788 0.67424L153.677 139.39ZM150.887 147.435C151.226 146.582 151.537 145.72 151.845 144.875L73.0139 1.00996C72.2816 1.0939 71.5494 1.17781 70.8098 1.29653L150.887 147.435ZM147.71 154.751C148.075 153.982 148.44 153.213 148.795 152.421L66.4125 2.09704C65.7237 2.25185 65.0314 2.42405 64.3254 2.59156L147.71 154.751Z" fill="#EBEFF2"/>
</svg>
