<svg width="125" height="30" viewBox="0 0 125 30" fill="none" xmlns="http://www.w3.org/2000/svg">
<g filter="url(#filter0_d_680_36647)">
<rect x="2" y="1" width="121" height="26" rx="8" fill="#007AFF" fill-opacity="0.1"/>
<circle cx="16" cy="14" r="3" fill="#007AFF"/>
<path d="M29.5125 19L26.6886 8.81818H28.3044L30.288 16.7031H30.3825L32.4457 8.81818H34.0465L36.1098 16.7081H36.2042L38.1829 8.81818H39.8036L36.9748 19H35.4286L33.2859 11.3736H33.2063L31.0636 19H29.5125ZM43.7643 19.1541C43.0119 19.1541 42.364 18.9934 41.8204 18.6719C41.2802 18.3471 40.8626 17.8913 40.5676 17.3047C40.2759 16.7147 40.1301 16.0237 40.1301 15.2315C40.1301 14.4493 40.2759 13.7599 40.5676 13.1634C40.8626 12.5668 41.2735 12.1011 41.8005 11.7663C42.3308 11.4316 42.9506 11.2642 43.6599 11.2642C44.0908 11.2642 44.5084 11.3355 44.9127 11.478C45.3171 11.6205 45.68 11.8442 46.0015 12.1491C46.323 12.4541 46.5766 12.8501 46.7622 13.3374C46.9478 13.8213 47.0406 14.4096 47.0406 15.1023V15.6293H40.9703V14.5156H45.5839C45.5839 14.1245 45.5044 13.7782 45.3453 13.4766C45.1862 13.1716 44.9625 12.9313 44.6741 12.7557C44.3891 12.58 44.0543 12.4922 43.6699 12.4922C43.2522 12.4922 42.8877 12.5949 42.5761 12.8004C42.2679 13.0026 42.0292 13.2678 41.8602 13.5959C41.6945 13.9207 41.6116 14.2737 41.6116 14.6548V15.5249C41.6116 16.0353 41.7011 16.4695 41.8801 16.8274C42.0624 17.1854 42.3159 17.4588 42.6407 17.6477C42.9655 17.8333 43.345 17.9261 43.7792 17.9261C44.0609 17.9261 44.3178 17.8864 44.5498 17.8068C44.7818 17.724 44.9824 17.6013 45.1514 17.4389C45.3204 17.2765 45.4497 17.076 45.5392 16.8374L46.9461 17.0909C46.8334 17.5052 46.6313 17.8681 46.3396 18.1797C46.0512 18.4879 45.6883 18.7282 45.2508 18.9006C44.8166 19.0696 44.3211 19.1541 43.7643 19.1541ZM50.1076 8.81818V9.77273C50.1076 10.0545 50.0546 10.3511 49.9485 10.6626C49.8458 10.9709 49.6999 11.2675 49.511 11.5526C49.3221 11.8376 49.1 12.0829 48.8448 12.2884L48.109 11.7614C48.3046 11.4763 48.4736 11.1731 48.6161 10.8516C48.762 10.5301 48.8349 10.1754 48.8349 9.78764V8.81818H50.1076ZM51.4582 19V11.3636H52.895V12.5767H52.9745C53.1137 12.1657 53.359 11.8426 53.7103 11.6072C54.065 11.3686 54.466 11.2493 54.9135 11.2493C55.0063 11.2493 55.1156 11.2526 55.2416 11.2592C55.3708 11.2659 55.4719 11.2741 55.5448 11.2841V12.706C55.4852 12.6894 55.3791 12.6712 55.2267 12.6513C55.0742 12.6281 54.9217 12.6165 54.7693 12.6165C54.4179 12.6165 54.1047 12.6911 53.8296 12.8402C53.5579 12.986 53.3424 13.1899 53.1833 13.4517C53.0242 13.7102 52.9447 14.0052 52.9447 14.3366V19H51.4582ZM59.989 19.1541C59.2366 19.1541 58.5887 18.9934 58.0451 18.6719C57.5049 18.3471 57.0872 17.8913 56.7923 17.3047C56.5006 16.7147 56.3548 16.0237 56.3548 15.2315C56.3548 14.4493 56.5006 13.7599 56.7923 13.1634C57.0872 12.5668 57.4982 12.1011 58.0252 11.7663C58.5555 11.4316 59.1753 11.2642 59.8846 11.2642C60.3155 11.2642 60.7331 11.3355 61.1374 11.478C61.5418 11.6205 61.9047 11.8442 62.2262 12.1491C62.5477 12.4541 62.8013 12.8501 62.9869 13.3374C63.1725 13.8213 63.2653 14.4096 63.2653 15.1023V15.6293H57.195V14.5156H61.8086C61.8086 14.1245 61.7291 13.7782 61.57 13.4766C61.4109 13.1716 61.1872 12.9313 60.8988 12.7557C60.6138 12.58 60.279 12.4922 59.8945 12.4922C59.4769 12.4922 59.1123 12.5949 58.8008 12.8004C58.4925 13.0026 58.2539 13.2678 58.0849 13.5959C57.9192 13.9207 57.8363 14.2737 57.8363 14.6548V15.5249C57.8363 16.0353 57.9258 16.4695 58.1048 16.8274C58.2871 17.1854 58.5406 17.4588 58.8654 17.6477C59.1902 17.8333 59.5697 17.9261 60.0039 17.9261C60.2856 17.9261 60.5425 17.8864 60.7745 17.8068C61.0065 17.724 61.207 17.6013 61.3761 17.4389C61.5451 17.2765 61.6744 17.076 61.7639 16.8374L63.1708 17.0909C63.0581 17.5052 62.8559 17.8681 62.5643 18.1797C62.2759 18.4879 61.913 18.7282 61.4755 18.9006C61.0413 19.0696 60.5458 19.1541 59.989 19.1541ZM69.019 19V8.81818H70.5552V13.2429H75.6312V8.81818H77.1724V19H75.6312V14.5604H70.5552V19H69.019ZM79.4303 19V11.3636H80.9168V19H79.4303ZM80.181 10.1854C79.9225 10.1854 79.7004 10.0992 79.5148 9.92685C79.3325 9.75118 79.2414 9.54238 79.2414 9.30043C79.2414 9.05516 79.3325 8.84635 79.5148 8.67401C79.7004 8.49834 79.9225 8.41051 80.181 8.41051C80.4395 8.41051 80.6599 8.49834 80.8422 8.67401C81.0278 8.84635 81.1206 9.05516 81.1206 9.30043C81.1206 9.54238 81.0278 9.75118 80.8422 9.92685C80.6599 10.0992 80.4395 10.1854 80.181 10.1854ZM83.0566 19V11.3636H84.4934V12.5767H84.573C84.7122 12.1657 84.9574 11.8426 85.3088 11.6072C85.6634 11.3686 86.0644 11.2493 86.5119 11.2493C86.6047 11.2493 86.7141 11.2526 86.84 11.2592C86.9693 11.2659 87.0704 11.2741 87.1433 11.2841V12.706C87.0836 12.6894 86.9776 12.6712 86.8251 12.6513C86.6726 12.6281 86.5202 12.6165 86.3677 12.6165C86.0164 12.6165 85.7032 12.6911 85.4281 12.8402C85.1563 12.986 84.9409 13.1899 84.7818 13.4517C84.6227 13.7102 84.5431 14.0052 84.5431 14.3366V19H83.0566ZM88.5697 19V11.3636H90.0562V19H88.5697ZM89.3204 10.1854C89.0619 10.1854 88.8398 10.0992 88.6542 9.92685C88.4719 9.75118 88.3808 9.54238 88.3808 9.30043C88.3808 9.05516 88.4719 8.84635 88.6542 8.67401C88.8398 8.49834 89.0619 8.41051 89.3204 8.41051C89.5789 8.41051 89.7993 8.49834 89.9816 8.67401C90.1672 8.84635 90.26 9.05516 90.26 9.30043C90.26 9.54238 90.1672 9.75118 89.9816 9.92685C89.7993 10.0992 89.5789 10.1854 89.3204 10.1854ZM93.6825 14.4659V19H92.196V11.3636H93.6229V12.6065H93.7173C93.893 12.2022 94.1681 11.8774 94.5426 11.6321C94.9204 11.3868 95.3961 11.2642 95.9694 11.2642C96.4898 11.2642 96.9455 11.3736 97.3366 11.5923C97.7277 11.8078 98.031 12.1293 98.2464 12.5568C98.4619 12.9844 98.5696 13.513 98.5696 14.1428V19H97.0831V14.3217C97.0831 13.7682 96.9389 13.3357 96.6506 13.0241C96.3622 12.7093 95.9661 12.5518 95.4623 12.5518C95.1176 12.5518 94.8111 12.6264 94.5426 12.7756C94.2774 12.9247 94.067 13.1435 93.9112 13.4318C93.7587 13.7169 93.6825 14.0616 93.6825 14.4659ZM103.905 22.0227C103.298 22.0227 102.776 21.9432 102.339 21.7841C101.905 21.625 101.55 21.4145 101.275 21.1527C101 20.8909 100.794 20.6042 100.658 20.2926L101.936 19.7656C102.026 19.9115 102.145 20.0656 102.294 20.228C102.447 20.3937 102.652 20.5346 102.911 20.6506C103.172 20.7666 103.509 20.8246 103.92 20.8246C104.483 20.8246 104.949 20.687 105.317 20.4119C105.685 20.1402 105.869 19.706 105.869 19.1094V17.608H105.774C105.685 17.7704 105.555 17.951 105.386 18.1499C105.221 18.3487 104.992 18.5211 104.7 18.6669C104.409 18.8127 104.029 18.8857 103.562 18.8857C102.959 18.8857 102.415 18.7448 101.931 18.4631C101.451 18.178 101.069 17.7588 100.788 17.2053C100.509 16.6484 100.37 15.964 100.37 15.152C100.37 14.34 100.508 13.6439 100.783 13.0639C101.061 12.4839 101.442 12.0398 101.926 11.7315C102.41 11.42 102.959 11.2642 103.572 11.2642C104.046 11.2642 104.429 11.3438 104.72 11.5028C105.012 11.6586 105.239 11.8409 105.401 12.0497C105.567 12.2585 105.695 12.4425 105.784 12.6016H105.894V11.3636H107.35V19.169C107.35 19.8253 107.198 20.3639 106.893 20.7848C106.588 21.2057 106.175 21.5173 105.655 21.7195C105.138 21.9216 104.555 22.0227 103.905 22.0227ZM103.89 17.6527C104.318 17.6527 104.679 17.5533 104.974 17.3544C105.272 17.1522 105.497 16.8639 105.65 16.4893C105.806 16.1115 105.884 15.6591 105.884 15.1321C105.884 14.6184 105.807 14.166 105.655 13.7749C105.502 13.3838 105.279 13.0788 104.984 12.8601C104.689 12.638 104.324 12.527 103.89 12.527C103.443 12.527 103.07 12.643 102.771 12.875C102.473 13.1037 102.248 13.4152 102.095 13.8097C101.946 14.2041 101.872 14.6449 101.872 15.1321C101.872 15.6326 101.948 16.0717 102.1 16.4496C102.253 16.8274 102.478 17.1224 102.776 17.3345C103.078 17.5466 103.449 17.6527 103.89 17.6527ZM111.358 8.81818L111.229 16.0717H109.852L109.722 8.81818H111.358ZM110.543 19.0945C110.268 19.0945 110.032 18.9983 109.837 18.8061C109.641 18.6106 109.545 18.3752 109.548 18.1001C109.545 17.8284 109.641 17.5964 109.837 17.4041C110.032 17.2086 110.268 17.1108 110.543 17.1108C110.811 17.1108 111.043 17.2086 111.239 17.4041C111.434 17.5964 111.534 17.8284 111.537 18.1001C111.534 18.2824 111.486 18.4498 111.393 18.6023C111.303 18.7514 111.184 18.8707 111.035 18.9602C110.886 19.0497 110.722 19.0945 110.543 19.0945Z" fill="#202020"/>
<rect x="2.5" y="1.5" width="120" height="25" rx="7.5" stroke="#007AFF"/>
</g>
<defs>
<filter id="filter0_d_680_36647" x="0" y="0" width="125" height="30" filterUnits="userSpaceOnUse" color-interpolation-filters="sRGB">
<feFlood flood-opacity="0" result="BackgroundImageFix"/>
<feColorMatrix in="SourceAlpha" type="matrix" values="0 0 0 0 0 0 0 0 0 0 0 0 0 0 0 0 0 0 127 0" result="hardAlpha"/>
<feOffset dy="1"/>
<feGaussianBlur stdDeviation="1"/>
<feColorMatrix type="matrix" values="0 0 0 0 0.0627451 0 0 0 0 0.0941176 0 0 0 0 0.156863 0 0 0 0.05 0"/>
<feBlend mode="normal" in2="BackgroundImageFix" result="effect1_dropShadow_680_36647"/>
<feBlend mode="normal" in="SourceGraphic" in2="effect1_dropShadow_680_36647" result="shape"/>
</filter>
</defs>
</svg>
