<svg width="45" height="46" viewBox="0 0 45 46" fill="none" xmlns="http://www.w3.org/2000/svg">
<rect y="0.780029" width="45" height="45" rx="10" fill="#007AFF"/>
<path fill-rule="evenodd" clip-rule="evenodd" d="M11.7568 12.7475C13.0824 11.3258 14.97 10.53 17.1985 10.53H28.5528C30.7866 10.53 32.6744 11.3254 33.9988 12.7481C35.3156 14.1626 36 16.1152 36 18.3059V29.0041C36 31.1948 35.3156 33.1474 33.9986 34.562C32.6741 35.9847 30.7859 36.78 28.5516 36.78H17.1985C14.9647 36.78 13.0766 35.9847 11.7519 34.562C10.4348 33.1475 9.75 31.195 9.75 29.0041V18.3059C9.75 16.1138 10.4385 14.1614 11.7568 12.7475ZM13.2337 14.1245C12.3217 15.1026 11.7692 16.5333 11.7692 18.3059V29.0041C11.7692 30.778 12.3195 32.2085 13.2297 33.186C14.1323 34.1554 15.4636 34.7608 17.1985 34.7608H28.5516C30.2871 34.7608 31.6183 34.1553 32.5207 33.1861C33.4307 32.2086 33.9808 30.7781 33.9808 29.0041V18.3059C33.9808 16.532 33.4307 15.1014 32.5208 14.1239C31.6186 13.1547 30.2877 12.5493 28.5528 12.5493H17.1985C15.4701 12.5493 14.1383 13.1543 13.2337 14.1245Z" fill="white"/>
<path fill-rule="evenodd" clip-rule="evenodd" d="M17.0412 27.5815C17.5988 27.5815 18.0508 28.0336 18.0508 28.5912V30.386C18.0508 30.9436 17.5988 31.3956 17.0412 31.3956C16.4836 31.3956 16.0316 30.9436 16.0316 30.386V28.5912C16.0316 28.0336 16.4836 27.5815 17.0412 27.5815Z" fill="white"/>
<path fill-rule="evenodd" clip-rule="evenodd" d="M23.3246 25.7866C23.8822 25.7866 24.3342 26.2386 24.3342 26.7962V30.386C24.3342 30.9436 23.8822 31.3956 23.3246 31.3956C22.767 31.3956 22.315 30.9436 22.315 30.386V26.7962C22.315 26.2386 22.767 25.7866 23.3246 25.7866Z" fill="white"/>
<path fill-rule="evenodd" clip-rule="evenodd" d="M28.7088 23.094C29.2664 23.094 29.7184 23.546 29.7184 24.1036V30.3857C29.7184 30.9433 29.2664 31.3953 28.7088 31.3953C28.1512 31.3953 27.6992 30.9433 27.6992 30.3857V24.1036C27.6992 23.546 28.1512 23.094 28.7088 23.094Z" fill="white"/>
<path fill-rule="evenodd" clip-rule="evenodd" d="M29.3816 16.1724C29.7969 16.5445 29.8317 17.1828 29.4596 17.5981L28.9318 18.1869C28.9317 18.187 28.9316 18.1871 28.9315 18.1872C25.8819 21.5923 21.8081 24.0018 17.2759 25.0856C16.7336 25.2153 16.1889 24.8808 16.0592 24.3385C15.9295 23.7962 16.264 23.2514 16.8063 23.1217C20.9479 22.1313 24.6581 19.9322 27.4276 16.8398L27.956 16.2503C28.3281 15.8351 28.9664 15.8002 29.3816 16.1724Z" fill="white"/>
<path fill-rule="evenodd" clip-rule="evenodd" d="M25.0071 16.9242C25.0071 16.3666 25.4591 15.9146 26.0167 15.9146H28.709C29.2666 15.9146 29.7186 16.3666 29.7186 16.9242V20.5139C29.7186 21.0715 29.2666 21.5235 28.709 21.5235C28.1514 21.5235 27.6994 21.0715 27.6994 20.5139V17.9338H26.0167C25.4591 17.9338 25.0071 17.4818 25.0071 16.9242Z" fill="white"/>
</svg>
