<svg width="25" height="25" viewBox="0 0 25 25" fill="none" xmlns="http://www.w3.org/2000/svg">
<path fill-rule="evenodd" clip-rule="evenodd" d="M1.91123 2.1119C3.17368 0.757886 4.97139 0 7.09377 0H17.9074C20.0348 0 21.8328 0.75751 23.0941 2.11246C24.3482 3.45964 25 5.31921 25 7.4056V17.5944C25 19.6808 24.3482 21.5404 23.0939 22.8876C21.8324 24.2425 20.0342 25 17.9063 25H7.09377C4.96641 25 3.16817 24.2425 1.90659 22.8876C0.652213 21.5405 0 19.6809 0 17.5944V7.4056C0 5.31787 0.655734 3.45845 1.91123 2.1119ZM3.31777 3.42333C2.44925 4.35484 1.92308 5.71745 1.92308 7.4056V17.5944C1.92308 19.2837 2.44717 20.6462 3.314 21.5771C4.17362 22.5003 5.4415 23.0769 7.09377 23.0769H17.9063C19.5592 23.0769 20.827 22.5003 21.6864 21.5772C22.5531 20.6463 23.0769 19.2839 23.0769 17.5944V7.4056C23.0769 5.71612 22.5531 4.35365 21.6865 3.42277C20.8272 2.49966 19.5597 1.92308 17.9074 1.92308H7.09377C5.44774 1.92308 4.17933 2.49928 3.31777 3.42333Z" fill="#00A7FB"/>
<path fill-rule="evenodd" clip-rule="evenodd" d="M6.94384 16.2396C7.47488 16.2396 7.90538 16.6701 7.90538 17.2011V18.9105C7.90538 19.4415 7.47488 19.872 6.94384 19.872C6.4128 19.872 5.9823 19.4415 5.9823 18.9105V17.2011C5.9823 16.6701 6.4128 16.2396 6.94384 16.2396Z" fill="#00A7FB"/>
<path fill-rule="evenodd" clip-rule="evenodd" d="M12.9278 14.5306C13.4589 14.5306 13.8894 14.9611 13.8894 15.4921V18.9109C13.8894 19.442 13.4589 19.8725 12.9278 19.8725C12.3968 19.8725 11.9663 19.442 11.9663 18.9109V15.4921C11.9663 14.9611 12.3968 14.5306 12.9278 14.5306Z" fill="#00A7FB"/>
<path fill-rule="evenodd" clip-rule="evenodd" d="M18.0564 11.9662C18.5874 11.9662 19.0179 12.3967 19.0179 12.9278V18.9107C19.0179 19.4417 18.5874 19.8722 18.0564 19.8722C17.5253 19.8722 17.0948 19.4417 17.0948 18.9107V12.9278C17.0948 12.3967 17.5253 11.9662 18.0564 11.9662Z" fill="#00A7FB"/>
<path fill-rule="evenodd" clip-rule="evenodd" d="M18.697 5.3742C19.0924 5.72865 19.1256 6.33655 18.7712 6.732L18.2685 7.29278C18.2684 7.29288 18.2683 7.29299 18.2682 7.29309C15.3639 10.536 11.484 12.8308 7.1677 13.863C6.65122 13.9865 6.1324 13.6679 6.00889 13.1515C5.88538 12.635 6.20394 12.1162 6.72042 11.9926C10.6649 11.0494 14.1984 8.95502 16.836 6.00983L17.3392 5.44842C17.6936 5.05298 18.3015 5.01975 18.697 5.3742Z" fill="#00A7FB"/>
<path fill-rule="evenodd" clip-rule="evenodd" d="M14.5305 6.0902C14.5305 5.55916 14.961 5.12866 15.4921 5.12866H18.0562C18.5872 5.12866 19.0177 5.55916 19.0177 6.0902V9.509C19.0177 10.04 18.5872 10.4705 18.0562 10.4705C17.5251 10.4705 17.0946 10.04 17.0946 9.509V7.05174H15.4921C14.961 7.05174 14.5305 6.62124 14.5305 6.0902Z" fill="#00A7FB"/>
</svg>
