<svg width="22" height="20" viewBox="0 0 22 20" fill="none" xmlns="http://www.w3.org/2000/svg">
<path d="M0.903564 2.32323C0.903564 1.64982 1.13935 1.09426 1.61091 0.656566C2.08247 0.218848 2.69552 0 3.45002 0C4.19106 0 4.7906 0.215475 5.2487 0.646465C5.72026 1.09091 5.95605 1.67002 5.95605 2.38384C5.95605 3.0303 5.72701 3.56901 5.26891 4C4.79735 4.44444 4.17758 4.66667 3.4096 4.66667H3.38939C2.64835 4.66667 2.0488 4.44444 1.5907 4C1.1326 3.55556 0.903564 2.99663 0.903564 2.32323ZM1.16629 20V6.50505H5.6529V20H1.16629ZM8.13872 20H12.6253V12.4646C12.6253 11.9933 12.6792 11.6296 12.787 11.3737C12.9756 10.9158 13.2619 10.5286 13.6459 10.2121C14.0299 9.89562 14.5116 9.73737 15.0909 9.73737C16.6 9.73737 17.3545 10.7542 17.3545 12.7879V20H21.8411V12.2626C21.8411 10.2694 21.3695 8.75758 20.4264 7.72727C19.4832 6.69697 18.237 6.18182 16.6875 6.18182C14.9495 6.18182 13.5954 6.92929 12.6253 8.42424V8.46465H12.6051L12.6253 8.42424V6.50505H8.13872C8.16566 6.93602 8.17914 8.27608 8.17914 10.5253C8.17914 12.7744 8.16566 15.9326 8.13872 20Z" fill="#202020"/>
</svg>
