<svg width="20" height="20" viewBox="0 0 20 20" fill="none" xmlns="http://www.w3.org/2000/svg">
<path fill-rule="evenodd" clip-rule="evenodd" d="M2.45148 3.64707C1.81896 4.23441 1.39535 5.1874 1.39535 6.68233V13.194C1.39535 14.6889 1.81896 15.6419 2.45148 16.2292C3.09335 16.8252 4.06044 17.1475 5.34884 17.1475H14.6512C15.9396 17.1475 16.9066 16.8252 17.5485 16.2292C18.181 15.6419 18.6047 14.6889 18.6047 13.194V6.68233C18.6047 5.1874 18.181 4.23441 17.5485 3.64707C16.9066 3.05105 15.9396 2.72885 14.6512 2.72885H5.34884C4.06044 2.72885 3.09335 3.05105 2.45148 3.64707ZM1.50201 2.62457C2.48804 1.70897 3.84654 1.3335 5.34884 1.3335H14.6512C16.1535 1.3335 17.512 1.70897 18.498 2.62457C19.4934 3.54886 20 4.92145 20 6.68233V13.194C20 14.9548 19.4934 16.3274 18.498 17.2517C17.512 18.1673 16.1535 18.5428 14.6512 18.5428H5.34884C3.84654 18.5428 2.48804 18.1673 1.50201 17.2517C0.506619 16.3274 0 14.9548 0 13.194V6.68233C0 4.92145 0.506619 3.54886 1.50201 2.62457Z" fill="#007AFF"/>
<path fill-rule="evenodd" clip-rule="evenodd" d="M15.1963 6.712C15.4368 7.01307 15.3876 7.45207 15.0866 7.69254L12.1741 10.0188C10.9616 10.9841 9.02906 10.9841 7.8166 10.0188L7.81488 10.0174L4.91256 7.69186C4.61187 7.45092 4.56343 7.01184 4.80437 6.71115C5.04531 6.41046 5.48439 6.36202 5.78508 6.60296L8.68649 8.9278C9.39032 9.4874 10.601 9.48727 11.3046 8.92743C11.3045 8.92751 11.3048 8.92734 11.3046 8.92743L14.2157 6.60228C14.5168 6.36181 14.9558 6.41093 15.1963 6.712Z" fill="#007AFF"/>
</svg>
