<svg width="25" height="25" viewBox="0 0 25 25" fill="none" xmlns="http://www.w3.org/2000/svg">
<path fill-rule="evenodd" clip-rule="evenodd" d="M6.76345 17.6932C7.18889 18.4654 6.93598 19.451 6.19901 19.8966C5.46036 20.3431 4.5157 20.0778 4.08943 19.3057C3.40188 18.2263 2.92034 17.2021 2.63811 16.2505C2.47983 15.7165 2.71432 15.1414 3.17744 14.8621L3.35917 14.7527C4.09697 14.3089 5.04079 14.5732 5.46623 15.3445L6.76345 17.6932ZM7.20997 14.3826L8.50766 16.7322C9.42957 18.4054 8.91465 20.5817 7.22946 21.6008C5.50602 22.6424 3.35061 22.0059 2.38196 20.3318C1.63114 19.1459 1.07025 17.9678 0.728865 16.8167C0.307714 15.3959 0.92509 13.8949 2.14904 13.1568L2.33262 13.0463C4.07352 11.999 6.25882 12.6595 7.20946 14.3817L7.20997 14.3826Z" fill="#0A3265"/>
<path fill-rule="evenodd" clip-rule="evenodd" d="M22.0547 16.2524C21.7726 17.204 21.291 18.2282 20.6034 19.3076C20.1771 20.0797 19.2325 20.345 18.4939 19.8985C17.7568 19.4529 17.5039 18.4672 17.9294 17.6951L19.2266 15.3463C19.6521 14.5751 20.5959 14.3108 21.3337 14.7546L21.5155 14.864C21.9785 15.1433 22.213 15.7184 22.0547 16.2524ZM22.3109 20.3337C21.3422 22.0077 19.1872 22.6446 17.4637 21.6028C15.7783 20.5838 15.2633 18.4072 16.1852 16.734L16.1862 16.7323L17.4829 14.3844C17.483 14.3842 17.4831 14.3841 17.4832 14.3839C17.4831 14.384 17.4832 14.3838 17.4832 14.3839C18.4338 12.6617 20.6193 12.0008 22.3602 13.0481L22.5439 13.1587C23.7679 13.8968 24.3851 15.3977 23.964 16.8183C23.6227 17.9696 23.0617 19.1478 22.3109 20.3337Z" fill="#0A3265"/>
<path fill-rule="evenodd" clip-rule="evenodd" d="M21.6047 19.6339C22.0896 19.8933 22.2724 20.4966 22.013 20.9815C20.8409 23.1726 19.5744 24.2734 18.0451 24.7268C17.3177 24.9425 16.5864 24.9941 15.883 24.9995C15.531 25.0023 15.1716 24.9933 14.8188 24.9842L14.7886 24.9835C14.4412 24.9745 14.0967 24.9657 13.741 24.9657C13.191 24.9657 12.7452 24.5199 12.7452 23.97C12.7452 23.42 13.191 22.9742 13.741 22.9742C14.1228 22.9742 14.4899 22.9837 14.8316 22.9925C14.8444 22.9928 14.8572 22.9931 14.8699 22.9935C15.2273 23.0026 15.554 23.0106 15.8674 23.0082C16.4949 23.0033 17.0121 22.9559 17.479 22.8175C18.3385 22.5627 19.2448 21.9344 20.257 20.0422C20.5164 19.5573 21.1198 19.3745 21.6047 19.6339Z" fill="#0A3265"/>
<path fill-rule="evenodd" clip-rule="evenodd" d="M0 12.3658C0 5.53484 5.54492 0 12.3658 0C19.1953 0 24.7407 5.53433 24.7407 12.3658C24.7407 14.1494 24.3586 15.8499 23.6784 17.3806C23.4551 17.8831 22.8666 18.1094 22.3641 17.8861C21.8616 17.6628 21.6352 17.0744 21.8586 16.5718C22.4287 15.2889 22.7492 13.8634 22.7492 12.3658C22.7492 6.63623 18.0975 1.99144 12.3658 1.99144C6.64372 1.99144 1.99144 6.63572 1.99144 12.3658C1.99144 13.6689 2.23215 14.915 2.66838 16.0543C2.86501 16.5679 2.60808 17.1436 2.09451 17.3403C1.58095 17.5369 1.00522 17.28 0.808592 16.7664C0.286338 15.4023 0 13.9151 0 12.3658Z" fill="#0A3265"/>
</svg>
