<svg width="25" height="25" viewBox="0 0 25 25" fill="none" xmlns="http://www.w3.org/2000/svg">
<g clip-path="url(#clip0_181_5878)">
<path fill-rule="evenodd" clip-rule="evenodd" d="M22.2124 22.2145C21.706 22.721 20.9111 22.4477 20.078 22.1613C19.5583 21.9826 19.0237 21.7989 18.5352 21.7962C18.0788 21.7962 17.5981 21.9862 17.0121 22.2226C13.0464 24.0576 8.19591 23.3497 4.92285 20.0747C0.742923 15.8938 0.735972 9.10966 4.92285 4.92059C9.10279 0.740787 15.8933 0.740787 20.0732 4.92059C23.3462 8.19561 24.0551 13.0462 22.2193 17.0129C21.9842 17.6002 21.8013 18.0717 21.8013 18.5293C21.8013 19.0231 21.9851 19.5622 22.1635 20.0855C22.4473 20.9176 22.7173 21.7094 22.2124 22.2145ZM23.8601 17.7183C25.9735 13.1039 25.1439 7.46846 21.3359 3.65812L21.3355 3.65771C16.4584 -1.21924 8.53773 -1.21924 3.66063 3.65771L3.66028 3.65806C-1.22415 8.54505 -1.21602 16.4595 3.66023 21.3372M23.8601 17.7183C23.7479 17.9992 23.6777 18.1823 23.631 18.3366C23.585 18.4889 23.5866 18.5372 23.5866 18.5293C23.5866 18.5855 23.6036 18.7251 23.6905 19.0137C23.7316 19.1502 23.7799 19.2938 23.838 19.4644C23.8432 19.4796 23.8485 19.4951 23.8539 19.5109C23.9054 19.6618 23.9652 19.8371 24.0194 20.0108C24.1318 20.3709 24.2804 20.9022 24.2804 21.4715C24.2804 22.104 24.0944 22.8573 23.4749 23.4771L23.4748 23.4772C22.8553 24.0969 22.1019 24.2831 21.4691 24.2828C20.8994 24.2826 20.3681 24.1334 20.0075 24.0201C19.8311 23.9647 19.6536 23.9037 19.501 23.8512L19.4607 23.8374C19.2899 23.7787 19.1463 23.7299 19.0096 23.6882C18.7366 23.6049 18.5972 23.5844 18.5356 23.5821C18.5239 23.5833 18.4687 23.5902 18.3471 23.6276C18.1888 23.6763 18.0029 23.7486 17.7193 23.8628C13.1064 25.9764 7.46983 25.1489 3.66045 21.3375" fill="#FF713E"/>
<path fill-rule="evenodd" clip-rule="evenodd" d="M6.50665 12.8405C6.50665 12.16 7.05856 11.6089 7.73838 11.6089C8.4189 11.6089 8.96991 12.1607 8.96991 12.8405C8.96991 13.5203 8.4189 14.0721 7.73838 14.0721C7.05856 14.0721 6.50665 13.521 6.50665 12.8405Z" fill="#FF713E"/>
<path fill-rule="evenodd" clip-rule="evenodd" d="M11.2745 12.8405C11.2745 12.1599 11.8264 11.6089 12.5062 11.6089C13.1868 11.6089 13.7377 12.1607 13.7377 12.8405C13.7377 13.5203 13.1868 14.0721 12.5062 14.0721C11.8264 14.0721 11.2745 13.5211 11.2745 12.8405Z" fill="#FF713E"/>
<path fill-rule="evenodd" clip-rule="evenodd" d="M16.0432 12.8405C16.0432 12.1599 16.5952 11.6089 17.2749 11.6089C17.9554 11.6089 18.5065 12.1605 18.5065 12.8405C18.5065 13.5205 17.9554 14.0721 17.2749 14.0721C16.5952 14.0721 16.0432 13.5211 16.0432 12.8405Z" fill="#FF713E"/>
</g>
<defs>
<clipPath id="clip0_181_5878">
<rect width="25" height="25" fill="white"/>
</clipPath>
</defs>
</svg>
