<svg width="20" height="20" viewBox="0 0 20 20" fill="none" xmlns="http://www.w3.org/2000/svg">
<g clip-path="url(#clip0_680_36668)">
<path fill-rule="evenodd" clip-rule="evenodd" d="M18.8606 18.2251L18.8601 18.2257C18.3213 18.8185 17.6994 19.2758 16.9747 19.573C16.2919 19.8565 15.5596 20 14.7891 20C13.6979 20 12.5761 19.7436 11.4429 19.2615C10.3394 18.792 9.24991 18.1656 8.18273 17.3898L8.18117 17.3887C7.12189 16.6161 6.11925 15.7617 5.1645 14.8176L5.16021 14.8133L5.15596 14.809C4.21063 13.8559 3.3544 12.8543 2.58851 11.804L2.58639 11.8011L2.58429 11.7981C1.82166 10.7395 1.19378 9.66159 0.730705 8.57308L0.729157 8.56944C0.255774 7.44684 0 6.32781 0 5.2225C0 4.48031 0.131254 3.75382 0.403809 3.07218C0.684275 2.36187 1.12236 1.72438 1.7066 1.17162C2.45449 0.440383 3.3661 0 4.39597 0C4.81308 0 5.24144 0.0880501 5.63747 0.276192C6.04538 0.465809 6.42274 0.75902 6.71542 1.17846L8.7426 4.03145C8.94233 4.30893 9.10691 4.59168 9.2293 4.88793C9.35493 5.18342 9.44917 5.53292 9.44917 5.905C9.44917 6.35974 9.31663 6.78613 9.09326 7.15903C8.91266 7.47357 8.67551 7.76334 8.41673 8.02294L8.13717 8.3131C8.24785 8.46641 8.39313 8.65234 8.57879 8.87165C8.95662 9.30743 9.35517 9.74659 9.78362 10.183C10.2432 10.6333 10.672 11.0358 11.101 11.3995C11.3241 11.588 11.5136 11.7331 11.6705 11.8426L11.9461 11.571C12.2058 11.3121 12.5048 11.0621 12.8432 10.8795C13.2074 10.6654 13.6192 10.535 14.0792 10.535C14.4287 10.535 14.7642 10.6099 15.0865 10.7416C15.3841 10.8632 15.6639 11.0256 15.9294 11.2059L15.9398 11.2129L18.8454 13.2727C19.231 13.5408 19.5519 13.8944 19.7537 14.3522L19.7622 14.3717L19.7701 14.3914C19.9036 14.7244 20 15.102 20 15.5387C20 16.0415 19.8876 16.5475 19.6609 17.0269C19.4622 17.447 19.2022 17.8488 18.8606 18.2251ZM18.1278 14.2962L15.2272 12.24C15.0081 12.0913 14.8066 11.9775 14.6138 11.8988C14.421 11.82 14.2457 11.785 14.0792 11.785C13.8602 11.785 13.6586 11.8463 13.4571 11.9688C13.2555 12.0737 13.0452 12.24 12.8261 12.4587L12.1601 13.115C12.0637 13.2113 11.9498 13.2637 11.8008 13.2637C11.722 13.2637 11.6519 13.255 11.5817 13.2287C11.5536 13.2167 11.5273 13.2047 11.5029 13.1935C11.474 13.1803 11.4477 13.1682 11.424 13.1587C11.1261 13.0013 10.7492 12.7388 10.2936 12.3537C9.82912 11.96 9.37344 11.5312 8.90022 11.0675C8.44454 10.6038 8.02391 10.14 7.62957 9.685C7.24399 9.23 6.97233 8.85375 6.8146 8.565C6.80511 8.53658 6.79305 8.50815 6.77982 8.47695C6.7686 8.45052 6.75655 8.4221 6.74449 8.39C6.72697 8.32 6.7182 8.25875 6.7182 8.18875C6.7182 8.04875 6.76202 7.935 6.85841 7.83875L7.52441 7.1475C7.73473 6.9375 7.90123 6.7275 8.01515 6.52625C8.13783 6.325 8.19917 6.115 8.19917 5.905C8.19917 5.73875 8.15536 5.555 8.07649 5.37125C7.99762 5.17875 7.8837 4.9775 7.72596 4.75875L5.69291 1.8975C5.53518 1.67 5.33363 1.5125 5.10578 1.4075C4.88671 1.3025 4.64134 1.25 4.39597 1.25C3.7475 1.25 3.13408 1.52125 2.57324 2.0725C2.10879 2.51 1.77579 3 1.56547 3.53375C1.35516 4.05875 1.25 4.6275 1.25 5.2225C1.25 6.1325 1.46032 7.08625 1.88095 8.08375C2.30158 9.0725 2.87994 10.07 3.59852 11.0675C4.32586 12.065 5.14084 13.0188 6.04344 13.9287C6.95481 14.83 7.90999 15.6438 8.91775 16.3787C9.91675 17.105 10.9245 17.6825 11.9323 18.1112C12.94 18.54 13.8952 18.75 14.7891 18.75C15.4025 18.75 15.9721 18.6362 16.4979 18.4175C17.0324 18.1987 17.5056 17.8575 17.935 17.385C18.1892 17.105 18.3819 16.8075 18.5309 16.4925C18.6799 16.1775 18.75 15.8537 18.75 15.5387C18.75 15.2937 18.6974 15.075 18.6098 14.8562C18.5134 14.6375 18.3557 14.4537 18.1278 14.2962Z" fill="#007AFF"/>
</g>
<defs>
<clipPath id="clip0_680_36668">
<rect width="20" height="20" fill="white"/>
</clipPath>
</defs>
</svg>
