<svg width="25" height="25" viewBox="0 0 25 25" fill="none" xmlns="http://www.w3.org/2000/svg">
<path fill-rule="evenodd" clip-rule="evenodd" d="M16.2502 0.941679C16.2502 0.421604 16.6921 0 17.2371 0H18.891C22.2645 0 25 2.60847 25 5.82831V7.80832C25 8.3284 24.5582 8.75 24.0132 8.75C23.4682 8.75 23.0263 8.3284 23.0263 7.80832V5.82831C23.0263 3.64925 21.1751 1.88336 18.891 1.88336H17.2371C16.6921 1.88336 16.2502 1.46175 16.2502 0.941679Z" fill="#007AFF"/>
<path fill-rule="evenodd" clip-rule="evenodd" d="M5.79026 1.88336C3.62527 1.88336 1.87066 3.64925 1.87066 5.82831V7.80832C1.87066 8.3284 1.4519 8.75 0.93533 8.75C0.418761 8.75 0 8.3284 0 7.80832V5.82831C0 2.60847 2.59276 0 5.79026 0H7.39776C7.91433 0 8.33309 0.421604 8.33309 0.941679C8.33309 1.46175 7.91433 1.88336 7.39776 1.88336H5.79026Z" fill="#007AFF"/>
<path fill-rule="evenodd" clip-rule="evenodd" d="M0.93983 16.2497C1.45888 16.2497 1.87966 16.6713 1.87966 17.1913V19.1715C1.87966 21.3505 3.64268 23.1163 5.81812 23.1163H7.39326C7.91231 23.1163 8.33309 23.5379 8.33309 24.058C8.33309 24.5781 7.91231 24.9997 7.39326 24.9997H5.81812C2.60526 24.9997 0 22.3914 0 19.1715V17.1913C0 16.6713 0.420776 16.2497 0.93983 16.2497Z" fill="#007AFF"/>
<path fill-rule="evenodd" clip-rule="evenodd" d="M24.0162 16.2497C24.5586 16.2497 24.9983 16.6713 24.9983 17.1913V19.1715C24.9983 22.3914 22.2759 24.9997 18.9185 24.9997H17.2306C16.6882 24.9997 16.2485 24.5781 16.2485 24.058C16.2485 23.5379 16.6882 23.1163 17.2306 23.1163H18.9185C21.1918 23.1163 23.0341 21.3505 23.0341 19.1715V17.1913C23.0341 16.6713 23.4738 16.2497 24.0162 16.2497Z" fill="#007AFF"/>
<path fill-rule="evenodd" clip-rule="evenodd" d="M12.4997 7.34858C10.3011 7.34858 8.51955 9.20614 8.51955 11.4985C8.51955 12.9652 9.37068 14.5204 10.4449 15.7813C10.9683 16.3955 11.5099 16.8984 11.953 17.2401C12.1756 17.4117 12.3595 17.5319 12.4925 17.6043C12.495 17.6057 12.4974 17.607 12.4997 17.6082C12.5021 17.607 12.5045 17.6057 12.507 17.6043C12.64 17.5319 12.8239 17.4117 13.0465 17.2401C13.4896 16.8984 14.0312 16.3955 14.5546 15.7813C15.6288 14.5204 16.4799 12.9652 16.4799 11.4985C16.4799 9.20614 14.6983 7.34858 12.4997 7.34858ZM6.66656 11.4985C6.66656 8.13911 9.27775 5.41656 12.4997 5.41656C15.7217 5.41656 18.3329 8.13911 18.3329 11.4985C18.3329 13.6717 17.1229 15.6758 15.9399 17.0644C15.3346 17.7748 14.6986 18.3691 14.1482 18.7935C13.874 19.0049 13.6072 19.1849 13.3646 19.3169C13.167 19.4245 12.8418 19.5832 12.4997 19.5832C12.1577 19.5832 11.8325 19.4245 11.6349 19.3169C11.3923 19.1849 11.1255 19.0049 10.8513 18.7935C10.3009 18.3691 9.66485 17.7748 9.05958 17.0644C7.87657 15.6758 6.66656 13.6717 6.66656 11.4985Z" fill="#007AFF"/>
<path fill-rule="evenodd" clip-rule="evenodd" d="M11.2499 11.2497C11.2499 10.5596 11.8093 9.99966 12.4998 9.99966C13.1902 9.99966 13.7499 10.5593 13.7499 11.2497C13.7499 11.94 13.1902 12.4997 12.4998 12.4997C11.8093 12.4997 11.2499 11.9397 11.2499 11.2497Z" fill="#007AFF"/>
</svg>
