<svg width="25" height="25" viewBox="0 0 25 25" fill="none" xmlns="http://www.w3.org/2000/svg">
<path d="M24.937 6.86461L24.0205 11.4373C23.5308 13.8645 21.3853 15.6247 18.9166 15.6247H7.01061C7.4481 16.8537 8.60432 17.7082 9.9583 17.7082H19.7916C20.3643 17.7082 20.8331 18.1769 20.8331 18.7496C20.8331 19.3224 20.3643 19.7911 19.7916 19.7911H9.9583C7.3231 19.7911 5.09365 17.8122 4.78116 15.1872L3.34368 2.99994C3.28119 2.47896 2.83344 2.08346 2.31245 2.08346H1.04148C0.468741 2.08346 0 1.61471 0 1.04148C0 0.468253 0.468741 0 1.04148 0H2.31245C3.89592 0 5.2289 1.18748 5.4164 2.7602L5.4579 3.12494H9.37433C9.94707 3.12494 10.4158 3.59368 10.4158 4.16642C10.4158 4.73917 9.94707 5.20791 9.37433 5.20791H5.7079L6.68688 13.5412H18.9156C20.3946 13.5412 21.6866 12.489 21.9781 11.031L22.8946 6.45837C22.9571 6.15613 22.8736 5.83338 22.6758 5.59364C22.4781 5.3539 22.1861 5.20839 21.8736 5.20839H17.7072C17.1344 5.20839 16.6657 4.73965 16.6657 4.16691C16.6657 3.59417 17.1344 3.12543 17.7072 3.12543H21.8736C22.8111 3.12543 23.6963 3.54192 24.2901 4.2714C24.8838 5.00088 25.1235 5.94861 24.936 6.8651L24.937 6.86461ZM7.29136 20.8331C6.14539 20.8331 5.20791 21.7706 5.20791 22.9165C5.20791 24.0625 6.14539 25 7.29136 25C8.43734 25 9.37482 24.0625 9.37482 22.9165C9.37482 21.7706 8.43734 20.8331 7.29136 20.8331ZM17.7077 20.8331C16.5617 20.8331 15.6242 21.7706 15.6242 22.9165C15.6242 24.0625 16.5617 25 17.7077 25C18.8536 25 19.7911 24.0625 19.7911 22.9165C19.7911 21.7706 18.8536 20.8331 17.7077 20.8331ZM9.65606 7.5521C9.26007 7.96859 9.29132 8.63557 9.70831 9.02082L11.3333 10.5418C11.948 11.1565 12.7498 11.4583 13.552 11.4583C14.3542 11.4583 15.1354 11.156 15.7292 10.5623L17.3854 9.02082C17.8019 8.62483 17.8229 7.96859 17.4376 7.5521C17.0417 7.1356 16.3854 7.10435 15.9689 7.49985L14.594 8.78108V1.04148C14.594 0.468741 14.1252 0 13.5525 0C12.9797 0 12.511 0.468741 12.511 1.04148V8.78108L11.136 7.49985C10.7195 7.10387 10.0525 7.13511 9.66729 7.5521H9.65704H9.65606Z" fill="#5B67EF"/>
</svg>
