<svg width="45" height="46" viewBox="0 0 45 46" fill="none" xmlns="http://www.w3.org/2000/svg">
<rect y="0.780029" width="45" height="45" rx="10" fill="#007AFF"/>
<path fill-rule="evenodd" clip-rule="evenodd" d="M24.4012 15.1086C24.4012 14.6028 24.8112 14.1929 25.3169 14.1929H32.6425C33.1482 14.1929 33.5582 14.6028 33.5582 15.1086C33.5582 15.6143 33.1482 16.0243 32.6425 16.0243H25.3169C24.8112 16.0243 24.4012 15.6143 24.4012 15.1086Z" fill="white"/>
<path fill-rule="evenodd" clip-rule="evenodd" d="M24.4012 18.7712C24.4012 18.2654 24.8112 17.8555 25.3169 17.8555H28.9797C29.4854 17.8555 29.8954 18.2654 29.8954 18.7712C29.8954 19.2769 29.4854 19.6869 28.9797 19.6869H25.3169C24.8112 19.6869 24.4012 19.2769 24.4012 18.7712Z" fill="white"/>
<path fill-rule="evenodd" clip-rule="evenodd" d="M22.2645 12.3614C16.3604 12.3614 11.5814 17.1404 11.5814 23.0446C11.5814 28.9487 16.3604 33.7277 22.2645 33.7277C28.1687 33.7277 32.9477 28.9487 32.9477 23.0446C32.9477 22.5388 33.3576 22.1289 33.8634 22.1289C34.3691 22.1289 34.7791 22.5388 34.7791 23.0446C34.7791 29.9602 29.1801 35.5591 22.2645 35.5591C15.3489 35.5591 9.75 29.9602 9.75 23.0446C9.75 16.129 15.3489 10.53 22.2645 10.53C22.7703 10.53 23.1802 10.94 23.1802 11.4457C23.1802 11.9515 22.7703 12.3614 22.2645 12.3614Z" fill="white"/>
<path fill-rule="evenodd" clip-rule="evenodd" d="M31.9949 32.775C32.3525 32.4174 32.9323 32.4174 33.2899 32.775L35.7318 35.2169C36.0894 35.5745 36.0894 36.1543 35.7318 36.5119C35.3742 36.8695 34.7944 36.8695 34.4368 36.5119L31.9949 34.07C31.6373 33.7124 31.6373 33.1326 31.9949 32.775Z" fill="white"/>
</svg>
