<svg width="25" height="25" viewBox="0 0 25 25" fill="none" xmlns="http://www.w3.org/2000/svg">
<path fill-rule="evenodd" clip-rule="evenodd" d="M3.31725 3.42323C2.44903 4.3547 1.92308 5.71732 1.92308 7.40561V17.5944C1.92308 19.2839 2.44694 20.6463 3.31347 21.5772C4.17276 22.5003 5.44027 23.0769 7.09251 23.0769H17.905C19.558 23.0769 20.8262 22.5003 21.6859 21.5771C22.5528 20.6462 23.0769 19.2837 23.0769 17.5944V7.40561C23.0769 5.71625 22.5528 4.3538 21.686 3.42287C20.8264 2.49968 19.5585 1.92308 17.9063 1.92308H7.09251C5.44651 1.92308 4.17848 2.49927 3.31725 3.42323ZM1.91051 2.11201C3.17266 0.757908 4.97012 0 7.09251 0H17.9063C20.0336 0 21.8319 0.757495 23.0934 2.11237C24.3478 3.45951 25 5.31909 25 7.40561V17.5944C25 19.6809 24.3478 21.5405 23.0932 22.8877C21.8315 24.2426 20.0329 25 17.905 25H7.09251C4.96513 25 3.16715 24.2425 1.90586 22.8875C0.651815 21.5403 0 19.6808 0 17.5944V7.40561C0 5.31802 0.65534 3.45861 1.91051 2.11201Z" fill="#00CDB4"/>
<path fill-rule="evenodd" clip-rule="evenodd" d="M12.4259 16.0494C12.4259 15.5184 12.8564 15.0879 13.3874 15.0879H18.7129C19.2439 15.0879 19.6744 15.5184 19.6744 16.0494C19.6744 16.5805 19.2439 17.011 18.7129 17.011H13.3874C12.8564 17.011 12.4259 16.5805 12.4259 16.0494Z" fill="#00CDB4"/>
<path fill-rule="evenodd" clip-rule="evenodd" d="M10.6043 14.582C10.9248 15.0054 10.8412 15.6085 10.4178 15.9289L8.07177 17.7041C7.72849 17.9638 7.25439 17.9638 6.91118 17.7039L5.70688 16.7921C5.28349 16.4716 5.20012 15.8685 5.52066 15.4451C5.84121 15.0217 6.44429 14.9384 6.86768 15.2589L7.49174 15.7314L9.25738 14.3954C9.68085 14.075 10.2839 14.1585 10.6043 14.582Z" fill="#00CDB4"/>
<path fill-rule="evenodd" clip-rule="evenodd" d="M10.6043 7.48168C10.9248 7.90515 10.8412 8.50821 10.4178 8.82864L8.07177 10.6038C7.72849 10.8635 7.25438 10.8635 6.91117 10.6036L5.70686 9.69181C5.28348 9.37126 5.20012 8.76818 5.52067 8.3448C5.84123 7.92141 6.44431 7.83805 6.86769 8.15861L7.49175 8.63111L9.25738 7.2951C9.68085 6.97467 10.2839 7.05821 10.6043 7.48168Z" fill="#00CDB4"/>
<path fill-rule="evenodd" clip-rule="evenodd" d="M12.4259 8.94915C12.4259 8.41811 12.8564 7.98761 13.3874 7.98761H18.7129C19.2439 7.98761 19.6744 8.41811 19.6744 8.94915C19.6744 9.48019 19.2439 9.91069 18.7129 9.91069H13.3874C12.8564 9.91069 12.4259 9.48019 12.4259 8.94915Z" fill="#00CDB4"/>
</svg>
