<svg width="310" height="245" viewBox="0 0 310 245" fill="none" xmlns="http://www.w3.org/2000/svg">
<path d="M203.842 244.175C197.065 244.175 190.377 241.867 184.374 237.354L19.0923 103.622C10.2114 96.9481 3.87464 86.2109 1.26639 73.4064C-1.33759 60.6073 0.103365 47.2654 5.31986 35.8482C10.5364 24.4311 18.9084 16.3042 28.8925 12.9646C38.8765 9.61953 49.2753 11.4676 58.1775 18.1577L223.459 151.89C232.34 158.563 238.677 169.3 241.285 182.105C243.889 194.91 242.453 208.246 237.236 219.663C232.02 231.08 223.647 239.207 213.663 242.547C210.414 243.633 207.117 244.175 203.842 244.175ZM38.7097 13.2607C35.5627 13.2607 32.3944 13.7762 29.2645 14.8236C19.6695 18.0371 11.6224 25.8514 6.60689 36.8244C-3.74487 59.4777 2.20279 88.7115 19.8662 101.988L185.148 235.72C193.683 242.135 203.679 243.907 213.279 240.693C222.874 237.48 230.921 229.665 235.936 218.693C246.288 196.039 240.34 166.805 222.677 153.529L57.3993 19.7973C51.6441 15.4707 45.2261 13.2553 38.714 13.2553L38.7097 13.2607Z" fill="white"/>
<path d="M270.471 233.614C263.694 233.614 257.007 231.305 251.004 226.792L85.7262 93.0601C76.8453 86.3864 70.5085 75.6492 67.9003 62.8447C65.2963 50.0402 66.733 36.7037 71.9495 25.2866C77.166 13.8694 85.538 5.74254 95.5221 2.40294C105.506 -0.942143 115.905 0.905877 124.807 7.59604L290.089 141.328C298.97 148.002 305.307 158.739 307.915 171.543C310.519 184.348 309.082 197.684 303.866 209.102C298.649 220.519 290.277 228.646 280.293 231.985C277.043 233.071 273.747 233.614 270.471 233.614ZM105.344 2.69358C102.197 2.69358 99.0282 3.20905 95.8983 4.25644C86.3034 7.46991 78.2563 15.2842 73.2408 26.2572C62.889 48.9105 68.8367 78.1443 86.5001 91.4205L251.782 225.152C260.316 231.568 270.318 233.34 279.912 230.126C289.507 226.913 297.555 219.098 302.57 208.125C312.922 185.472 306.974 156.238 289.311 142.962L124.029 9.23568C118.274 4.90901 111.856 2.69358 105.344 2.69358Z" fill="white"/>
</svg>
