<svg width="29" height="20" viewBox="0 0 29 20" fill="none" xmlns="http://www.w3.org/2000/svg">
<path d="M11.857 14.2857L19.2713 10L11.857 5.71429V14.2857ZM28.3713 3.1C28.557 3.77143 28.6856 4.67143 28.7713 5.81429C28.8713 6.95714 28.9142 7.94286 28.9142 8.8L28.9999 10C28.9999 13.1286 28.7713 15.4286 28.3713 16.9C28.0142 18.1857 27.1856 19.0143 25.8999 19.3714C25.2285 19.5571 23.9999 19.6857 22.1142 19.7714C20.257 19.8714 18.557 19.9143 16.9856 19.9143L14.7142 20C8.72847 20 4.9999 19.7714 3.52847 19.3714C2.24275 19.0143 1.41418 18.1857 1.05704 16.9C0.871324 16.2286 0.742753 15.3286 0.657038 14.1857C0.557038 13.0429 0.514181 12.0571 0.514181 11.2L0.428467 10C0.428467 6.87143 0.657038 4.57143 1.05704 3.1C1.41418 1.81429 2.24275 0.985714 3.52847 0.628572C4.1999 0.442857 5.42847 0.314286 7.31418 0.228571C9.17132 0.128571 10.8713 0.0857142 12.4428 0.0857142L14.7142 0C20.6999 0 24.4285 0.228572 25.8999 0.628572C27.1856 0.985714 28.0142 1.81429 28.3713 3.1Z" fill="#202020"/>
</svg>
